<?xml version="1.0" encoding="UTF-8" standalone="no"?>
<!-- Created with Inkscape (http://www.inkscape.org/) -->

<svg
   width="1024"
   height="1024"
   viewBox="0 0 270.93333 270.93333"
   version="1.1"
   id="svg1"
   inkscape:version="1.4.3 (0d15f75, 2025-12-25)"
   sodipodi:docname="passxyz.svg"
   xmlns:inkscape="http://www.inkscape.org/namespaces/inkscape"
   xmlns:sodipodi="http://sodipodi.sourceforge.net/DTD/sodipodi-0.dtd"
   xmlns="http://www.w3.org/2000/svg"
   xmlns:svg="http://www.w3.org/2000/svg">
  <sodipodi:namedview
     id="namedview1"
     pagecolor="#ffffff"
     bordercolor="#000000"
     borderopacity="0.25"
     inkscape:showpageshadow="2"
     inkscape:pageopacity="0.0"
     inkscape:pagecheckerboard="0"
     inkscape:deskcolor="#d1d1d1"
     inkscape:document-units="mm"
     inkscape:export-bgcolor="#80808000"
     inkscape:zoom="0.41"
     inkscape:cx="686.58537"
     inkscape:cy="520.73171"
     inkscape:window-width="1440"
     inkscape:window-height="821"
     inkscape:window-x="-7"
     inkscape:window-y="-7"
     inkscape:window-maximized="1"
     inkscape:current-layer="layer1" />
  <defs
     id="defs1" />
  <g
     inkscape:label="图层 1"
     inkscape:groupmode="layer"
     id="layer1"
     style="display:inline">
    <path
       id="path34625"
       style="display:inline;fill:#1a1a1a;fill-opacity:1;stroke-width:0.411767"
       d="m 99.74224,35.001174 c -8.115105,0.0589 -16.186335,2.70562 -23.66633,7.90741 -2.982707,2.07426 -32.859488,34.32705 -34.711896,37.4724 -8.574196,14.55882 -8.481741,30.260676 0.261115,44.347956 1.670818,2.69217 2.756894,3.82486 15.053752,15.69881 l 12.565236,12.13298 -0.518007,0.55866 -2.740648,2.95799 a 9.5125658,9.6212105 0 0 0 0.438188,13.59939 l 66.18994,62.72309 a 9.5125658,9.6212105 0 0 0 13.44583,-0.44265 l 86.36985,-93.23808 a 9.5125658,9.6212105 0 0 0 -0.43819,-13.5994 L 165.80109,62.396714 a 9.5125658,9.6212105 0 0 0 -13.44584,0.44319 l -3.24807,3.50597 -12.79253,-11.88705 c -12.46704,-11.58502 -13.71912,-12.66206 -16.46817,-14.17143 -6.26771,-3.44129 -12.80164,-5.19733 -19.31879,-5.28408 -0.26185,-0.004 -0.52367,-0.004 -0.78545,-0.002 z m -2.04029,29.62753 a 17.187169,14.235873 44.879257 0 1 1.74111,0.01 17.187169,14.235873 44.879257 0 1 11.65397,5.29905 l 18.4704,17.50207 L 90.093125,130.05348 71.623217,112.55037 A 17.187169,14.235873 44.879257 0 1 68.82601,90.284474 l 20.121185,-21.72214 a 17.187169,14.235873 44.879257 0 1 8.754755,-3.93364 z M 70.119956,128.99032 h 7.118294 c 1.573972,0 2.906797,0.13684 3.999183,0.41002 1.092382,0.26138 2.061432,0.67701 2.907152,1.24726 0.99841,0.67718 1.76796,1.52102 2.30828,2.53085 0.55205,1.00981 0.82827,2.28657 0.82827,3.831 0,1.17613 -0.20573,2.26949 -0.61684,3.27931 -0.39937,0.99792 -0.96319,1.86482 -1.69145,2.60141 -0.90444,0.91475 -1.9735,1.60399 -3.20684,2.06733 -1.233339,0.45145 -2.789513,0.67734 -4.668875,0.67734 h -3.488593 v 9.89028 h -3.488581 z m 78.034714,0 h 4.01716 l 7.06543,10.78146 7.224,-10.78146 h 3.82318 l -9.05603,13.11609 9.03858,13.41871 h -4.03511 l -7.15319,-10.92421 -7.32971,10.92421 h -3.80572 l 9.1443,-13.25832 z m 23.4158,0 h 3.85857 l 7.17114,11.86833 7.24145,-11.86833 h 3.71746 l -9.23206,14.89796 v 11.63684 h -3.48858 V 144.2625 Z m 24.91374,0 h 19.48636 v 3.19002 l -16.24464,20.20822 h 16.63261 v 3.13656 H 195.8848 v -3.27929 l 16.08659,-20.11896 h -15.48718 z m -122.875673,3.02964 v 10.60288 h 2.94256 c 1.409544,0 2.554782,-0.12467 3.435725,-0.37421 0.880961,-0.26136 1.597123,-0.67125 2.149193,-1.2296 0.55206,-0.57026 0.93967,-1.16984 1.16285,-1.79951 0.23492,-0.62964 0.35256,-1.33668 0.35256,-2.12079 0,-0.91477 -0.15857,-1.71092 -0.47572,-2.38808 -0.31714,-0.67719 -0.79855,-1.22961 -1.44459,-1.65731 -0.563814,-0.36828 -1.210015,-0.62929 -1.938264,-0.78373 -0.716517,-0.16632 -1.627013,-0.24965 -2.731148,-0.24965 z m 23.856083,3.11836 c 1.38603,0 2.59036,0.11893 3.61226,0.35659 1.03366,0.22573 1.926,0.61777 2.67775,1.17613 0.74,0.54649 1.30381,1.25354 1.69142,2.1208 0.38763,0.86725 0.58145,1.94223 0.58145,3.22529 v 13.50799 h -3.29461 v -2.12079 c -0.29365,0.20197 -0.69318,0.48708 -1.19826,0.85536 -0.49334,0.35642 -0.97474,0.64155 -1.44459,0.85539 -0.55207,0.27324 -1.18635,0.49914 -1.90286,0.67735 -0.71651,0.1901 -1.55653,0.28495 -2.51971,0.28495 -1.773655,0 -3.276975,-0.59383 -4.510305,-1.78187 -1.23334,-1.18801 -1.85001,-2.70273 -1.85001,-4.54417 0,-1.50878 0.31714,-2.72686 0.95142,-3.65352 0.64603,-0.93854 1.56223,-1.67494 2.74858,-2.20954 1.19811,-0.53461 2.637165,-0.89678 4.316855,-1.08686 1.6797,-0.1901 3.48254,-0.33265 5.40888,-0.42769 v -0.51698 c 0,-0.76032 -0.13525,-1.3898 -0.4054,-1.88877 -0.25842,-0.49897 -0.63412,-0.89102 -1.12745,-1.17614 -0.46984,-0.27325 -1.03365,-0.45773 -1.69144,-0.55279 -0.65778,-0.0951 -1.34492,-0.14225 -2.06143,-0.14225 -0.86921,0 -1.83825,0.1184 -2.907155,0.35605 -1.06889,0.22574 -2.17319,0.55856 -3.31257,0.99813 h -0.17601 v -3.40386 c 0.64604,-0.17821 1.57984,-0.37424 2.80144,-0.58807 1.221595,-0.21385 2.425385,-0.32079 3.611745,-0.32079 z m 21.65402,0 c 1.17461,0 2.36077,0.14885 3.55887,0.44586 1.20982,0.28512 2.21411,0.63523 3.01283,1.05104 v 3.5819 h -0.176 c -0.84572,-0.62966 -1.87331,-1.15797 -3.08315,-1.58566 -1.20983,-0.43956 -2.39654,-0.6597 -3.55938,-0.6597 -1.20985,0 -2.23176,0.23795 -3.06573,0.71316 -0.83396,0.46333 -1.2506,1.15832 -1.2506,2.08497 0,0.81974 0.25237,1.43717 0.75744,1.85295 0.49333,0.41581 1.2919,0.7544 2.39602,1.01578 0.61081,0.14253 1.29225,0.28512 2.04399,0.42768 0.7635,0.14255 1.39777,0.2736 1.90285,0.39239 1.53872,0.35642 2.72488,0.96806 3.55886,1.83533 0.83397,0.87913 1.25112,2.04322 1.25112,3.4926 0,1.81767 -0.7457,3.30883 -2.23744,4.47307 -1.47999,1.16429 -3.50616,1.74659 -6.07855,1.74659 -1.4565,0 -2.79556,-0.17245 -4.01714,-0.51697 -1.20985,-0.35641 -2.22605,-0.7427 -3.04828,-1.15851 v -3.7599 h 0.17601 c 1.04541,0.79597 2.20826,1.43174 3.48858,1.90695 1.28032,0.46332 2.50796,0.69501 3.68256,0.69501 1.45651,0 2.59604,-0.23797 3.41826,-0.71318 0.82222,-0.47521 1.23316,-1.22367 1.23316,-2.24536 0,-0.7841 -0.22335,-1.37794 -0.66971,-1.78187 -0.44634,-0.40392 -1.30343,-0.74827 -2.57202,-1.03339 -0.46983,-0.10693 -1.08648,-0.23167 -1.84999,-0.37424 -0.75175,-0.14254 -1.4389,-0.29718 -2.06143,-0.4635 -1.72666,-0.46332 -2.9543,-1.1405 -3.68257,-2.03152 -0.71649,-0.90289 -1.07458,-2.00775 -1.07458,-3.31457 0,-0.81974 0.16427,-1.59177 0.49316,-2.31647 0.34064,-0.7247 0.85159,-1.37252 1.53287,-1.94278 0.65777,-0.55835 1.49156,-0.99757 2.50172,-1.31833 1.02191,-0.33265 2.16145,-0.49933 3.41827,-0.49933 z m 18.79971,0 c 1.1746,0 2.36078,0.14885 3.55887,0.44586 1.20985,0.28512 2.21415,0.63523 3.01287,1.05104 v 3.5819 h -0.17602 c -0.8457,-0.62966 -1.87384,-1.15797 -3.0837,-1.58566 -1.20984,-0.43956 -2.396,-0.6597 -3.55887,-0.6597 -1.20984,0 -2.23174,0.23795 -3.06573,0.71316 -0.83396,0.46333 -1.25112,1.15832 -1.25112,2.08497 0,0.81974 0.25289,1.43717 0.75796,1.85295 0.49333,0.41581 1.29191,0.7544 2.39603,1.01578 0.61079,0.14253 1.29225,0.28512 2.04399,0.42768 0.7635,0.14255 1.39777,0.2736 1.90287,0.39239 1.53872,0.35642 2.72491,0.96806 3.55888,1.83533 0.83396,0.87913 1.25112,2.04322 1.25112,3.4926 0,1.81767 -0.74622,3.30883 -2.23797,4.47307 -1.47999,1.16429 -3.50619,1.74659 -6.07858,1.74659 -1.45652,0 -2.79558,-0.17245 -4.01717,-0.51697 -1.20985,-0.35641 -2.22552,-0.7427 -3.04775,-1.15851 v -3.7599 h 0.17602 c 1.04539,0.79597 2.20826,1.43174 3.48859,1.90695 1.2803,0.46332 2.50796,0.69501 3.68255,0.69501 1.45652,0 2.59553,-0.23797 3.41776,-0.71318 0.82223,-0.47521 1.2337,-1.22367 1.2337,-2.24536 0,-0.7841 -0.22336,-1.37794 -0.66971,-1.78187 -0.44636,-0.40392 -1.30399,-0.74827 -2.57256,-1.03339 -0.46986,-0.10693 -1.08653,-0.23167 -1.85001,-0.37424 -0.75173,-0.14254 -1.4389,-0.29718 -2.06144,-0.4635 -1.72667,-0.46332 -2.95379,-1.1405 -3.68203,-2.03152 -0.71651,-0.90289 -1.07513,-2.00775 -1.07513,-3.31457 0,-0.81974 0.16481,-1.59177 0.4937,-2.31647 0.34062,-0.7247 0.85158,-1.37252 1.53287,-1.94278 0.65776,-0.55835 1.49157,-0.99757 2.50171,-1.31833 1.02193,-0.33265 2.16148,-0.49933 3.4183,-0.49933 z m -35.18546,9.94374 c -1.01015,0.0594 -2.20256,0.14849 -3.57685,0.26729 -1.36254,0.1188 -2.443,0.29125 -3.24173,0.51698 -0.951435,0.27325 -1.720975,0.70093 -2.308275,1.28306 -0.5873,0.57025 -0.8806,1.36011 -0.88061,2.36993 0,1.1405 0.34046,2.00218 1.02173,2.5843 0.68129,0.57027 1.720805,0.85538 3.118595,0.85538 1.16285,0 2.22569,-0.22591 3.18888,-0.67734 0.96317,-0.46334 1.85604,-1.01578 2.67826,-1.6573 z" />
  </g>
</svg>
